# xmcd CD database file
#
# Track frame offsets:
#	150
#	33382
#	68446
#	103736
#	122589
#	161318
#	184728
#	218167
#	234697
#
# Disc length: 3467 seconds
#
# Revision: 0
# Processed by: cddbd v1.5.2PL0 Copyright (c) Steve Scherf et al.
# Submitted via: CDex 1.70beta2
#
DISCID=710d8909
DTITLE=Roman Ott Inner Shape and Kurt Rosenwinkel - Seeing People
DYEAR=2009
DGENRE=Jazz
TTITLE0=Seeing People
TTITLE1=The Gap
TTITLE2=J and K
TTITLE3=Uncertain Times
TTITLE4=Ivory
TTITLE5=Serenity
TTITLE6=Control
TTITLE7=Good Bye
TTITLE8=Orbison Delight
EXTD=YEAR: 2009
EXTT0=
EXTT1=
EXTT2=
EXTT3=
EXTT4=
EXTT5=
EXTT6=
EXTT7=
EXTT8=
PLAYORDER=
